<?xml version="1.0" encoding="UTF-8"?>
<svg width="160px" height="44px" viewBox="0 0 160 44" version="1.1" xmlns="http://www.w3.org/2000/svg" xmlns:xlink="http://www.w3.org/1999/xlink">
    <title>Components / Logos / Main</title>
    <g id="Components-/-Logos-/-Main" stroke="none" stroke-width="1" fill="none" fill-rule="evenodd">
        <g id="Group" transform="translate(-0.000056, -0.000198)">
            <path d="M132.600678,22.4868206 L133.263452,23.8270532 L133.931874,22.4868206 L134.882688,22.4868206 L132.612256,26.4699601 L131.644216,26.4699601 L132.808236,24.5406578 L131.655512,22.4868206 L132.600678,22.4868206 Z M104.093654,20.3175133 L101.607475,26.4304535 L101.154518,26.4304535 L103.64098,20.3175133 L104.093654,20.3175133 Z M107.296037,21.2547159 L107.296037,23.7462608 C107.296037,24.221809 107.543694,24.545995 108.045223,24.545995 C108.540538,24.545995 108.800056,24.221809 108.800056,23.7462608 L108.800056,21.2547159 L109.676037,21.2547159 L109.676037,23.8001977 C109.676037,24.7027226 109.111252,25.2974402 108.045223,25.2974402 C106.97891,25.2974402 106.414126,24.7027226 106.414126,23.8001977 L106.414126,21.2547159 L107.296037,21.2547159 Z M138.219573,22.4328555 C139.107131,22.4328555 139.763975,23.0436694 139.763975,23.8651478 C139.763975,24.6866262 139.107131,25.2810615 138.219573,25.2810615 C137.332015,25.2810615 136.686467,24.6866262 136.686467,23.8651478 C136.686467,23.0436694 137.332015,22.4328555 138.219573,22.4328555 Z M157.865135,22.4328555 C158.752693,22.4328555 159.409537,23.0436694 159.409537,23.8651478 C159.409537,24.6866262 158.752693,25.2810615 157.865135,25.2810615 C156.977576,25.2810615 156.332311,24.6866262 156.332311,23.8651478 C156.332311,23.0436694 156.977576,22.4328555 157.865135,22.4328555 Z M130.439645,21.5789867 L130.439645,22.4868771 L131.275243,22.4868771 L131.275243,23.1569934 L130.439645,23.1569934 L130.439645,24.1947841 C130.439645,24.4325581 130.60089,24.5675415 130.8429,24.5675415 C131.015724,24.5675415 131.13687,24.5299834 131.217635,24.486495 L131.430841,25.1134053 C131.275243,25.2000997 131.062037,25.2811462 130.762419,25.2811462 C130.047684,25.2811462 129.592468,24.8973754 129.592468,24.205515 L129.592468,23.1569934 L129.068066,23.1569934 L129.068066,22.4868771 L129.592468,22.4868771 L129.592468,21.5789867 L130.439645,21.5789867 Z M155.018228,21.5789867 L155.018228,22.4868771 L155.853826,22.4868771 L155.853826,23.1569934 L155.018228,23.1569934 L155.018228,24.1947841 C155.018228,24.4325581 155.179473,24.5675415 155.421483,24.5675415 C155.59459,24.5675415 155.715453,24.5299834 155.796218,24.486495 L156.009424,25.1134053 C155.853826,25.2000997 155.64062,25.2811462 155.341002,25.2811462 C154.626267,25.2811462 154.171051,24.8973754 154.171051,24.205515 L154.171051,23.1569934 L153.64665,23.1569934 L153.64665,22.4868771 L154.171051,22.4868771 L154.171051,21.5789867 L155.018228,21.5789867 Z M149.370613,22.4328555 C150.258171,22.4328555 150.915015,23.0436694 150.915015,23.8651478 C150.915015,24.6866262 150.258171,25.2810615 149.370613,25.2810615 C148.483055,25.2810615 147.837789,24.6866262 147.837789,23.8651478 C147.837789,23.0436694 148.483055,22.4328555 149.370613,22.4328555 Z M125.863821,22.4330532 C126.267359,22.4330532 126.653389,22.5465748 126.878173,22.7301296 L126.561329,23.2923721 C126.394153,23.1681196 126.157791,23.0596811 125.863821,23.0596811 C125.616163,23.0596811 125.483721,23.1299967 125.483721,23.2759934 C125.483721,23.4166246 125.593007,23.4705615 126.007841,23.5626213 C126.624585,23.7029701 126.924203,23.9624884 126.924203,24.3730864 C126.924203,24.9189502 126.440183,25.2809767 125.650615,25.2809767 C125.206977,25.2809767 124.780565,25.1513588 124.532625,24.9514252 L124.855399,24.3838173 C125.051379,24.5405449 125.328123,24.6594319 125.656545,24.6594319 C125.915781,24.6594319 126.071379,24.5837508 126.071379,24.4273056 C126.071379,24.281309 125.967741,24.2056279 125.575781,24.1189336 C124.936163,23.9732193 124.636545,23.756907 124.636545,23.3299302 C124.636545,22.7840664 125.091761,22.4330532 125.863821,22.4330532 Z M116.528025,22.4867641 L117.196447,23.8219136 L117.859221,22.4867641 L118.804387,22.4867641 L117.208025,25.2810332 L117.184869,25.2810332 L115.577211,22.4867641 L116.528025,22.4867641 Z M120.435173,22.4329402 C121.351535,22.4329402 121.795455,23.0705814 121.795455,23.8217442 L121.795455,24.075897 L119.818711,24.075897 C119.835937,24.4271927 120.066369,24.6271262 120.487133,24.6271262 C120.775173,24.6271262 120.999957,24.5082392 121.126751,24.3461462 L121.708761,24.7892193 C121.403495,25.1190532 121.017465,25.2811462 120.469907,25.2811462 C119.553545,25.2811462 118.965887,24.6864286 118.965887,23.8652326 C118.965887,23.0437542 119.565123,22.4329402 120.435173,22.4329402 Z M112.205987,22.4328837 C112.914791,22.4328837 113.300821,22.9084319 113.300821,23.6488638 L113.300821,25.2268704 L112.453645,25.2268704 L112.453645,23.6920698 C112.453645,23.3896279 112.275173,23.1786811 111.975555,23.1786811 C111.710389,23.1786811 111.531635,23.3354086 111.422349,23.5028671 L111.422349,25.2268704 L110.57489,25.2268704 L110.57489,22.4868206 L111.335654,22.4868206 L111.376037,22.7895449 C111.520056,22.5896113 111.802731,22.4328837 112.205987,22.4328837 Z M141.827159,21.1197608 C142.109269,21.1197608 142.339983,21.1844286 142.501229,21.2925847 L142.201611,21.9248605 C142.132425,21.8601927 142.011561,21.8113389 141.873189,21.8113389 C141.642475,21.8113389 141.510033,21.962701 141.510033,22.2058405 L141.510033,22.4868206 L142.167159,22.4868206 L142.167159,23.1569369 L141.510033,23.1569369 L141.510033,25.2268704 L140.662857,25.2268704 L140.662857,23.1569369 L140.155681,23.1569369 L140.155681,22.4868206 L140.662857,22.4868206 L140.662857,22.2490465 C140.662857,21.5899435 141.106777,21.1197608 141.827159,21.1197608 Z M124.152355,22.4329684 L124.152355,23.2219718 L124.083169,23.2219718 C123.737522,23.2219718 123.518385,23.3840648 123.351492,23.5842807 L123.351492,25.2269551 L122.504316,25.2269551 L122.504316,22.4869053 L123.25915,22.4869053 L123.31111,22.8492143 C123.45513,22.6275365 123.743169,22.4329684 124.152355,22.4329684 Z M146.005008,21.2547724 C146.811802,21.2547724 147.491802,21.7249551 147.491802,22.5678953 C147.491802,23.4111179 146.817733,23.8813007 146.005008,23.8813007 L145.192566,23.8813007 L145.192566,25.2268987 L144.310939,25.2268987 L144.310939,21.2547724 L146.005008,21.2547724 Z M115.030451,22.4867924 L115.030451,25.2268422 L114.155873,25.2268422 L114.155873,22.4867924 L115.030451,22.4867924 Z M128.504231,22.4867924 L128.504231,25.2268422 L127.629653,25.2268422 L127.629653,22.4867924 L128.504231,22.4867924 Z M153.248872,22.4329684 L153.248872,23.2219718 L153.179686,23.2219718 C152.834038,23.2219718 152.614902,23.3840648 152.448008,23.5842807 L152.448008,25.2269551 L151.600832,25.2269551 L151.600832,22.4869053 L152.355666,22.4869053 L152.407626,22.8492143 C152.551646,22.6275365 152.839686,22.4329684 153.248872,22.4329684 Z M157.865135,23.1247159 C157.473174,23.1247159 157.185135,23.4435365 157.185135,23.8651478 C157.185135,24.2813937 157.473174,24.589201 157.865135,24.589201 C158.262743,24.589201 158.550782,24.2813937 158.550782,23.8651478 C158.550782,23.4435365 158.262743,23.1247159 157.865135,23.1247159 Z M149.370613,23.1247159 C148.978653,23.1247159 148.690613,23.4435365 148.690613,23.8651478 C148.690613,24.2813937 148.978653,24.589201 149.370613,24.589201 C149.768221,24.589201 150.056261,24.2813937 150.056261,23.8651478 C150.056261,23.4435365 149.768221,23.1247159 149.370613,23.1247159 Z M138.219573,23.1247159 C137.827613,23.1247159 137.539573,23.4435365 137.539573,23.8651478 C137.539573,24.2813937 137.827613,24.589201 138.219573,24.589201 C138.617181,24.589201 138.905221,24.2813937 138.905221,23.8651478 C138.905221,23.4435365 138.617181,23.1247159 138.219573,23.1247159 Z M120.406369,23.0327409 C120.060721,23.0327409 119.835937,23.2597841 119.818711,23.5732392 L120.959575,23.5732392 C120.948279,23.2651495 120.752299,23.0327409 120.406369,23.0327409 Z M145.918596,21.9680947 L145.192566,21.9680947 L145.192566,23.1679784 L145.918596,23.1679784 C146.327782,23.1679784 146.604527,22.9680449 146.604527,22.5678953 C146.604527,22.1790415 146.327782,21.9680947 145.918596,21.9680947 Z M114.596369,21.1572907 C114.893725,21.1572907 115.107997,21.3518588 115.107997,21.622108 C115.107997,21.8923571 114.893725,22.0869252 114.596369,22.0869252 C114.298721,22.0869252 114.084741,21.8923571 114.084741,21.622108 C114.084741,21.3518588 114.298721,21.1572907 114.596369,21.1572907 Z M128.069857,21.1572907 C128.367505,21.1572907 128.581485,21.3518588 128.581485,21.622108 C128.581485,21.8923571 128.367505,22.0869252 128.069857,22.0869252 C127.772501,22.0869252 127.558229,21.8923571 127.558229,21.622108 C127.558229,21.3518588 127.772501,21.1572907 128.069857,21.1572907 Z" id="Combined-Shape" fill="#050302"></path>
            <path d="M40.9087492,30.7083821 C42.7236827,30.7083821 44.3717226,31.1912724 45.4041478,31.9904419 L43.7724867,34.6045449 C43.0732841,34.0383488 42.190809,33.5887807 40.892088,33.5887807 C39.9929518,33.5887807 39.5600449,33.8886811 39.5600449,34.4712558 C39.5600449,34.8875017 39.8599452,35.1871196 41.5082674,35.4700764 C44.8212907,36.1529003 45.737088,37.418299 45.737088,39.2829336 C45.737088,41.7470864 43.9388156,43.3787475 40.9087492,43.3787475 C38.9941312,43.3787475 37.2125199,42.7961728 35.9640648,41.6973854 L37.662088,39.0666213 C38.4445963,39.9324352 39.8099618,40.4983488 41.0087159,40.4983488 C42.0911246,40.4983488 42.5737326,40.1820698 42.5737326,39.5828339 C42.5737326,39.1499269 42.2241312,38.8500266 40.575809,38.5504086 C37.2794468,37.851206 36.3800282,36.4028173 36.3800282,34.6378671 C36.3800282,32.4066877 38.1283173,30.7083821 40.9087492,30.7083821 Z M51.365387,34.5045498 C52.980387,34.5045498 54.1624801,35.2537359 54.9283272,36.5191346 L52.7971146,38.0841512 C52.5141578,37.4682542 52.0812508,37.135314 51.3820482,37.135314 C50.4662508,37.135314 49.9666993,37.9508621 49.9666993,38.9166429 C49.9666993,39.8824236 50.4662508,40.6982542 51.3820482,40.6982542 C52.0645897,40.6982542 52.5308189,40.3486528 52.8307193,39.7324734 L54.9283272,41.3141512 C54.1624801,42.5795498 52.980387,43.3290183 51.365387,43.3290183 C48.8012674,43.3290183 46.8699884,41.4641013 46.8699884,38.9166429 C46.8699884,36.3694668 48.8012674,34.5045498 51.365387,34.5045498 Z M70.863201,34.5044934 C73.4936827,34.5044934 75.4416229,36.3860714 75.4416229,38.9332475 C75.4416229,41.480706 73.4936827,43.3289618 70.863201,43.3289618 C68.2324369,43.3289618 66.3011578,41.480706 66.3011578,38.9332475 C66.3011578,36.3860714 68.2324369,34.5044934 70.863201,34.5044934 Z M81.4360997,34.5044934 C84.0665814,34.5044934 86.0145216,36.3860714 86.0145216,38.9332475 C86.0145216,41.480706 84.0665814,43.3289618 81.4360997,43.3289618 C78.8053355,43.3289618 76.8740565,41.480706 76.8740565,38.9332475 C76.8740565,36.3860714 78.8053355,34.5044934 81.4360997,34.5044934 Z M90.8935781,30.5087027 L90.8935781,43.162407 L87.829907,43.162407 L87.829907,30.5087027 L90.8935781,30.5087027 Z M59.457613,30.5087027 L59.457613,35.2870581 C59.8735764,34.8208289 60.5730615,34.5045498 61.4721977,34.5045498 C63.570088,34.5045498 64.6522143,35.9862608 64.6522143,38.3507292 L64.6522143,43.162407 L61.5888256,43.162407 L61.5888256,38.5170581 C61.5888256,37.8345166 61.2392243,37.3682874 60.6230449,37.3682874 C60.0235266,37.3682874 59.6242243,37.751211 59.457613,38.1008123 L59.457613,43.162407 L56.3939419,43.162407 L56.3939419,30.5087027 L59.457613,30.5087027 Z M27.9683605,12.2375714 L30.637,22.072 L30.6370498,19.2087857 L33.7007209,19.2087857 L33.7007209,27.7000316 L32.164,27.7 L35.9637259,41.6972724 L0.017,27.7 L-1.42108547e-14,27.7000316 L-1.42108547e-14,15.4625731 L5.02799003,15.4625731 C7.39245847,15.4625731 8.95747508,16.7113106 8.95747508,18.8422409 C8.95747508,19.9246495 8.47458472,20.6571744 7.97503322,21.0734203 C8.64748932,21.3701463 9.20835643,21.7902181 9.5529442,22.4208676 L11.538,21.322 L11.5388206,19.2087292 L14.6024917,19.2087292 L14.602,19.628 L27.9683605,12.2375714 Z M27.7822641,12.6772558 L14.602,19.965 L14.6024917,23.8540781 C14.6024917,24.5366196 14.9021096,25.0028488 15.5346678,25.0028488 C16.1508472,25.0028488 16.5171096,24.6196429 16.7170432,24.2700415 L16.7170432,19.2087292 L19.7804319,19.2087292 L19.7804319,27.6999751 L17.0499834,27.6999751 L16.9000332,26.8508223 C16.4837874,27.4500581 15.7512625,27.8665864 14.6191528,27.8665864 C12.5712458,27.8665864 11.5388206,26.384593 11.5388206,24.020407 L11.538,21.659 L9.68016072,22.6873814 C9.83626632,23.0655158 9.92297342,23.5106228 9.92297342,24.0371246 C9.92297342,26.4013106 8.02501661,27.7000316 5.82715947,27.7000316 L0.827,27.7 L35.5263007,41.210711 L31.859,27.7 L30.6370498,27.7000316 L30.637,23.196 L27.7822641,12.6772558 Z M70.863201,37.1519186 C70.0137658,37.1519186 69.3978688,37.9177658 69.3978688,38.9332475 C69.3978688,39.9323505 70.0137658,40.6815365 70.863201,40.6815365 C71.7120714,40.6815365 72.344912,39.9323505 72.344912,38.9332475 C72.344912,37.9177658 71.7120714,37.1519186 70.863201,37.1519186 Z M81.4360997,37.1519186 C80.5869468,37.1519186 79.9707674,37.9177658 79.9707674,38.9332475 C79.9707674,39.9323505 80.5869468,40.6815365 81.4360997,40.6815365 C82.2849701,40.6815365 82.9178106,39.9323505 82.9178106,38.9332475 C82.9178106,37.9177658 82.2849701,37.1519186 81.4360997,37.1519186 Z M59.9422824,19.0422309 C61.1407542,19.0422309 62.3231296,19.35851 62.9723488,19.9413671 L61.8902226,22.0389751 C61.4406545,21.6563339 60.7578306,21.3231113 59.9422824,21.3231113 C59.3927475,21.3231113 59.1594917,21.4897226 59.1594917,21.7726794 C59.1594917,22.0225963 59.3427641,22.1722641 60.508196,22.4555033 C62.1565183,22.8548056 63.0053887,23.6539751 63.0053887,24.9196561 C63.0053887,26.6843239 61.5403389,27.8664169 59.076186,27.8664169 C57.7944086,27.8664169 56.4790266,27.5001545 55.7798239,26.8675963 L56.8952724,24.769706 C57.4112027,25.2192741 58.1773322,25.5855365 59.0928472,25.5855365 C59.6590432,25.5855365 59.9422824,25.4522475 59.9422824,25.1359684 C59.9422824,24.8530116 59.7923322,24.6530781 58.7765681,24.4034435 C56.9782957,23.9538754 56.0958206,23.3046561 56.0958206,21.9892741 C56.0958206,20.2243239 57.4945083,19.0422309 59.9422824,19.0422309 Z M25.7085183,19.0422309 C26.90699,19.0422309 28.0893654,19.35851 28.7385847,19.9413671 L27.6564585,22.0389751 C27.2068904,21.6563339 26.5240664,21.3231113 25.7085183,21.3231113 C25.1589834,21.3231113 24.9257276,21.4897226 24.9257276,21.7726794 C24.9257276,22.0225963 25.109,22.1722641 26.2744319,22.4555033 C27.9227542,22.8548056 28.771907,23.6539751 28.771907,24.9196561 C28.771907,26.6843239 27.3065748,27.8664169 24.8424219,27.8664169 C23.5606445,27.8664169 22.2452625,27.5001545 21.5460598,26.8675963 L22.6615083,24.769706 C23.1774385,25.2192741 23.9435681,25.5855365 24.8590831,25.5855365 C25.4252791,25.5855365 25.7085183,25.4522475 25.7085183,25.1359684 C25.7085183,24.8530116 25.5585681,24.6530781 24.542804,24.4034435 C22.7445316,23.9538754 21.8620565,23.3046561 21.8620565,21.9892741 C21.8620565,20.2243239 23.2607442,19.0422309 25.7085183,19.0422309 Z M50.4677193,19.0423439 C53.23149,19.0423439 54.4968887,21.0069452 54.4968887,23.3211478 L54.4968887,24.1869618 L49.119015,24.1869618 C49.1523372,24.9361478 49.6518887,25.3857159 50.5843472,25.3857159 C51.2169053,25.3857159 51.7997625,25.1027591 52.1327027,24.6865133 L54.2139319,26.3514967 C53.2814734,27.3836395 52.1327027,27.8665299 50.5177027,27.8665299 C47.8205764,27.8665299 46.022304,26.0182741 46.022304,23.4708156 C46.022304,20.9236395 47.8205764,19.0423439 50.4677193,19.0423439 Z M68.3839967,19.0422309 C69.5824684,19.0422309 70.7648439,19.35851 71.4140631,19.9413671 L70.3319369,22.0389751 C69.8823688,21.6563339 69.1995449,21.3231113 68.3839967,21.3231113 C67.8344618,21.3231113 67.601206,21.4897226 67.601206,21.7726794 C67.601206,22.0225963 67.7844784,22.1722641 68.9499103,22.4555033 C70.5982326,22.8548056 71.4473854,23.6539751 71.4473854,24.9196561 C71.4473854,26.6843239 69.9823355,27.8664169 67.5181827,27.8664169 C66.2361229,27.8664169 64.9207409,27.5001545 64.2215382,26.8675963 L65.3369867,24.769706 C65.8529169,25.2192741 66.6190465,25.5855365 67.5345615,25.5855365 C68.1007575,25.5855365 68.3839967,25.4522475 68.3839967,25.1359684 C68.3839967,24.8530116 68.2340465,24.6530781 67.2185648,24.4034435 C65.42001,23.9538754 64.5375349,23.3046561 64.5375349,21.9892741 C64.5375349,20.2243239 65.9362226,19.0422309 68.3839967,19.0422309 Z M41.1933439,19.0423721 C43.2912342,19.0423721 44.3733605,20.5240831 44.3733605,22.8882691 L44.3733605,27.6999468 L41.3099718,27.6999468 L41.3099718,23.0548804 C41.3099718,22.3720565 40.9603704,21.9058272 40.344191,21.9058272 C39.7446728,21.9058272 39.3453704,22.2887508 39.1787591,22.6383522 L39.1787591,27.6999468 L36.115088,27.6999468 L36.115088,19.208701 L38.8458189,19.208701 L38.9957691,20.0578538 C39.3786927,19.4583355 40.1445399,19.0423721 41.1933439,19.0423721 Z M5.42785714,22.655098 L3.16335548,22.655098 L3.16335548,24.8196329 L5.214,24.819 L6.67963351,24.0102925 C6.69935162,23.9255004 6.70963455,23.8344183 6.70963455,23.7372243 C6.70963455,23.0380216 6.17704319,22.655098 5.42785714,22.655098 Z M50.3344302,21.2065963 C49.6019053,21.2065963 49.1359585,21.7894535 49.119015,22.471995 L51.4834834,22.471995 C51.4668223,21.8061146 51.0669551,21.2065963 50.3344302,21.2065963 Z M4.59508306,18.3429718 L3.16335548,18.3429718 L3.16335548,20.2742508 L4.59508306,20.2742508 C5.26124585,20.2742508 5.74385382,19.9246495 5.74385382,19.3084701 C5.74385382,18.6925731 5.26124585,18.3429718 4.59508306,18.3429718 Z M32.1687442,14.8463937 C33.1681296,14.8463937 33.8839934,15.5622575 33.8839934,16.5613605 C33.8839934,17.5604635 33.1681296,18.2763272 32.1687442,18.2763272 C31.1699236,18.2763272 30.4540598,17.5604635 30.4540598,16.5613605 C30.4540598,15.5622575 31.1699236,14.8463937 32.1687442,14.8463937 Z M43.1204718,3.57974252 C45.7509535,3.57974252 47.6988937,5.4613206 47.6988937,8.00849668 C47.6988937,10.5559551 45.7509535,12.404211 43.1204718,12.404211 C40.4897076,12.404211 38.5584286,10.5559551 38.5584286,8.00849668 C38.5584286,5.4613206 40.4897076,3.57974252 43.1204718,3.57974252 Z M60.7864369,0.997126246 L60.7864369,3.74621262 L63.0342774,3.74621262 L63.0342774,6.31033223 L60.7864369,6.31033223 L60.7864369,8.79114618 C60.7864369,9.32373754 61.1526993,9.67362126 61.7355565,9.67362126 C62.1851246,9.67362126 62.5014037,9.55699336 62.7343771,9.44036545 L63.466902,11.8381561 C62.984294,12.1377741 62.3184136,12.4040698 61.4359385,12.4040698 C59.138397,12.4040698 57.7230482,11.1053488 57.7230482,8.82446844 L57.7230482,6.31033223 L56.2913206,6.31033223 L56.2913206,3.74621262 L57.7230482,3.74621262 L57.7230482,2.88604651 L60.7864369,0.997126246 Z M68.8954369,3.57974252 C71.526201,3.57974252 73.4738588,5.4613206 73.4738588,8.00849668 C73.4738588,10.5559551 71.526201,12.404211 68.8954369,12.404211 C66.2646728,12.404211 64.3331113,10.5559551 64.3331113,8.00849668 C64.3331113,5.4613206 66.2646728,3.57974252 68.8954369,3.57974252 Z M33.3294884,3.55271368e-15 C35.6103688,3.55271368e-15 37.6749369,1.51531561 37.6749369,4.1791196 C37.6749369,6.84320598 35.6103688,8.3582392 33.3294884,8.3582392 L31.1316312,8.3582392 L31.1316312,12.2377409 L27.9682757,12.2377409 L27.9682757,3.55271368e-15 L33.3294884,3.55271368e-15 Z M54.8089037,3.57977076 L54.8089037,6.6101196 L54.5589867,6.6101196 C53.6098671,6.6101196 52.9939701,7.02608306 52.5780066,7.50925581 L52.5780066,12.2376279 L49.5143355,12.2376279 L49.5143355,3.74609967 L52.2281229,3.74609967 L52.4113953,4.82850831 C52.8276412,4.12930565 53.6765116,3.57977076 54.8089037,3.57977076 Z M43.1204718,6.22716777 C42.2710365,6.22716777 41.6551395,6.99301495 41.6551395,8.00849668 C41.6551395,9.00759967 42.2710365,9.75678571 43.1204718,9.75678571 C43.9693422,9.75678571 44.6021827,9.00759967 44.6021827,8.00849668 C44.6021827,6.99301495 43.9693422,6.22716777 43.1204718,6.22716777 Z M68.8954369,6.22716777 C68.0460017,6.22716777 67.4301047,6.99301495 67.4301047,8.00849668 C67.4301047,9.00759967 68.0460017,9.75678571 68.8954369,9.75678571 C69.7443073,9.75678571 70.3771478,9.00759967 70.3771478,8.00849668 C70.3771478,6.99301495 69.7443073,6.22716777 68.8954369,6.22716777 Z M33.0129269,2.71406977 L31.1316312,2.71406977 L31.1316312,5.64445183 L33.0129269,5.64445183 C33.8620797,5.64445183 34.461598,5.16156146 34.461598,4.1791196 C34.461598,3.24694352 33.8620797,2.71406977 33.0129269,2.71406977 Z" id="Combined-Shape" fill="#192AEA"></path>
        </g>
    </g>
</svg>