<svg width="83" height="32" viewBox="0 0 83 32" fill="none" xmlns="http://www.w3.org/2000/svg">
<path fill-rule="evenodd" clip-rule="evenodd" d="M63.927 4.76053C63.7754 4.10844 63.4961 3.49288 63.105 2.94948C62.714 2.40608 62.2191 1.94564 61.6489 1.59478C60.1451 0.788512 58.4503 0.406202 56.746 0.48875C54.6622 0.48875 52.5854 0.824522 51.0239 2.32462C50.9197 2.42411 50.1627 3.17959 50.2466 3.25732C50.3312 3.3341 50.4151 3.41104 50.499 3.488L50.4998 3.48875C50.6 3.58059 50.7002 3.67246 50.8016 3.76409C51.0342 3.98072 51.2679 4.1959 51.5014 4.41097L51.5021 4.41167C51.6873 4.5822 51.8724 4.75267 52.0568 4.92374C52.4313 4.36413 52.9232 3.89275 53.4982 3.5423C54.0732 3.19185 54.7176 2.97075 55.3866 2.89434C56.8607 2.62662 58.3813 2.81029 59.7493 3.42132C60.2291 3.70384 60.6312 4.10122 60.9194 4.57771C61.2076 5.05419 61.3728 5.59485 61.4002 6.15103C61.4243 6.39975 61.4592 8.63823 61.432 8.63823H56.3154C55.1534 8.59572 53.9929 8.75643 52.8862 9.11313C51.264 9.69218 50.0539 11.0166 48.9743 12.2999C48.1257 13.4603 47.1741 14.5417 46.1311 15.5309C45.4329 16.1471 44.6052 16.5987 43.7092 16.8522C42.8589 17.0559 41.9789 17.1038 41.1116 16.9937C39.8701 16.8771 38.7211 16.287 37.9031 15.3459C37.0738 14.2487 36.6049 12.9214 36.5608 11.5467C36.5374 11.249 36.5273 10.9537 36.5273 10.6544H48.9812V9.45435C48.9812 6.75729 48.2817 3.81927 46.1054 2.0347C45.0532 1.241 43.8175 0.726015 42.513 0.537548C41.2086 0.349081 39.8777 0.493249 38.6438 0.95666C36.1201 1.90024 34.6689 4.2693 34.1256 6.80936C33.7963 8.45054 33.7249 10.133 33.9142 11.7962C34.0349 13.2095 34.4388 14.584 35.1019 15.8379C35.7046 16.8629 36.5532 17.7216 37.5709 18.3364C38.5887 18.9513 39.7435 19.3029 40.9313 19.3596C42.6274 19.5515 44.344 19.2894 45.9057 18.6003C47.5002 17.6825 48.8756 16.4285 49.9365 14.9254C50.034 16.2543 50.6515 17.4912 51.655 18.3679C52.5856 18.9552 53.6524 19.2917 54.7516 19.3449C56.0531 19.4994 57.3716 19.4244 58.6471 19.1234C59.7086 18.8083 60.668 18.2184 61.4282 17.4134V19.1638C61.4282 19.1861 61.5682 19.1802 61.6358 19.1773C61.6452 19.1769 61.6533 19.1766 61.6593 19.1764C61.6627 19.1763 61.6655 19.1762 61.6675 19.1762H64.1252V8.95535C64.2225 7.55302 64.1528 6.14409 63.9177 4.75819L63.927 4.76053ZM37.0831 5.5541C37.5801 4.46373 38.4699 3.60082 39.5751 3.13751C40.6802 2.6742 41.9194 2.64454 43.0454 3.05445C44.151 3.4422 45.063 4.24386 45.5893 5.29061C46.0481 6.3447 46.2811 7.48319 46.2733 8.63279H36.5297C36.5382 7.58278 36.7286 6.54219 37.0924 5.5572L37.0831 5.5541ZM61.4375 12.6512C61.4777 13.4925 61.3331 14.3325 61.0139 15.112C60.6593 15.7843 60.0824 16.3128 59.3817 16.6074C58.5979 16.9287 57.757 17.0874 56.91 17.0737C56.0931 17.1172 55.274 17.0545 54.4733 16.8872C53.9136 16.7945 53.3955 16.5334 52.9879 16.1388C52.5804 15.7441 52.3028 15.2347 52.1921 14.6783C52.0527 14.0985 52.0736 13.4917 52.2527 12.9229C52.4318 12.3542 52.7623 11.8449 53.2087 11.4496C54.1572 10.8476 55.2756 10.5701 56.3954 10.6591H61.3978C61.4567 11.3214 61.4704 11.987 61.439 12.6512H61.4375ZM71.8612 8.52161L74.8257 8.78276C78.0505 9.08511 80.2664 10.3209 80.2664 13.7712C80.2664 17.3387 77.225 19.4055 72.7613 19.4055C69.6476 19.4055 67.207 18.6912 65.1862 16.7372L66.9847 14.9378C67.7392 15.6757 68.6399 16.2473 69.6288 16.6158C70.6178 16.9842 71.6729 17.1412 72.7263 17.0768C75.763 17.0768 77.637 15.9887 77.637 13.8124C77.637 12.1988 76.7035 11.2956 74.566 11.1106L71.5262 10.8464C67.9221 10.5471 66.0077 8.93355 66.0077 5.89449C66.0077 2.51656 68.8603 0.487933 72.7994 0.487933C75.1749 0.375319 77.5176 1.07761 79.4394 2.47847L77.6758 4.2405C76.2453 3.21942 74.515 2.70467 72.7589 2.77772C70.0603 2.77772 68.6395 3.94204 68.6395 5.8191C68.6395 7.39459 69.538 8.33196 71.8612 8.52161ZM1.49431 3.23008C3.14675 1.08798 5.01993 0.487933 8.02323 0.487933H8.02478C12.9735 0.487933 15.4126 2.62693 15.4126 6.64299V19.1777H12.7132V17.4134C11.2084 18.9166 9.86376 19.4047 7.38588 19.4047C4.8365 19.4047 3.33562 18.9173 2.16975 17.7157C1.23782 16.6921 0.740803 15.346 0.783905 13.9624C0.783905 10.729 3.03327 8.63042 7.15736 8.63042H12.7108V6.86917C12.7108 4.16511 11.3592 2.81425 7.98514 2.81425C5.62463 2.81425 4.41989 3.37698 3.33174 4.91982L1.49431 3.23008ZM11.7727 15.8355C12.4108 15.2363 12.7132 14.1893 12.7132 12.6488L12.7124 10.6552H7.53355C4.76032 10.6552 3.40868 11.776 3.40868 13.9196C3.40868 16.0633 4.71991 17.0737 7.64704 17.0737C9.22563 17.0737 10.6122 16.961 11.7727 15.8355ZM26.9048 1.01051C27.8113 1.43146 28.5941 2.07891 29.1777 2.89041L29.1761 0.710229H31.8382V19.7373C31.8382 24.3115 28.9904 27.6536 24.1489 27.6536C22.9889 27.711 21.83 27.5199 20.7499 27.0931C19.6697 26.6663 18.6932 26.0137 17.8858 25.1789L19.6486 23.4503C21.0041 24.6496 21.9407 25.2885 24.0789 25.2885C27.6411 25.2885 29.1443 22.7756 29.1443 19.6231V16.7325C28.5515 17.5347 27.7665 18.1749 26.8615 18.5943C25.9566 19.0138 24.9607 19.1989 23.9654 19.1326C22.3194 19.1837 20.7181 18.5925 19.5001 17.4841C17.6643 15.6482 17.2523 12.7965 17.2523 9.79475C17.2523 6.793 17.6643 3.94126 19.5001 2.09995C20.7378 1.00389 22.3499 0.426349 24.002 0.487156C24.9985 0.409314 25.9982 0.58956 26.9048 1.01051ZM19.9525 9.79785C19.9525 13.2489 20.5502 16.6991 24.5655 16.6991C28.5807 16.6991 29.1435 13.2551 29.1435 9.79785C29.1435 6.34064 28.5807 2.89041 24.5655 2.89041C20.5502 2.89041 19.9525 6.34686 19.9525 9.79785ZM48.1854 29.8028L49.0823 29.9357C49.09 30.0524 49.1216 30.1663 49.1751 30.2703C49.2286 30.3743 49.3028 30.4662 49.3932 30.5404C49.6698 30.7249 49.9987 30.8146 50.3306 30.7961C50.6789 30.8177 51.0251 30.7281 51.3193 30.5404C51.5549 30.3636 51.7215 30.1102 51.7903 29.8238C51.8518 29.4324 51.874 29.0358 51.8563 28.64C51.6762 28.8655 51.4469 29.0469 51.186 29.1702C50.9251 29.2936 50.6394 29.3558 50.3508 29.352C50.0174 29.3683 49.6849 29.3031 49.3824 29.1619C49.0798 29.0208 48.8162 28.808 48.6144 28.5421C48.1976 27.9815 47.9814 27.2972 48.0004 26.5989C47.9953 26.106 48.091 25.6172 48.2818 25.1626C48.4481 24.7507 48.7323 24.3971 49.0987 24.1459C49.472 23.9022 49.9105 23.7773 50.3563 23.7876C50.6633 23.7831 50.9671 23.8511 51.2429 23.9861C51.5187 24.1212 51.7587 24.3195 51.9434 24.5649V23.9097H52.7937V28.6112C52.8317 29.2227 52.7436 29.8354 52.5349 30.4114C52.3574 30.7701 52.0705 31.0632 51.7157 31.2485C51.2891 31.4669 50.8143 31.5739 50.3353 31.5594C49.7778 31.5856 49.2266 31.4322 48.7629 31.1218C48.5624 30.9692 48.4042 30.768 48.3031 30.5372C48.2021 30.3064 48.1615 30.0536 48.1854 29.8028ZM48.9487 26.5383C48.9017 27.0929 49.0523 27.6463 49.3738 28.1006C49.5051 28.2548 49.6684 28.3787 49.8523 28.4637C50.0363 28.5486 50.2364 28.5926 50.439 28.5926C50.6416 28.5926 50.8418 28.5486 51.0257 28.4637C51.2096 28.3787 51.3729 28.2548 51.5042 28.1006C51.8274 27.6578 51.9803 27.1134 51.9348 26.5671C51.9745 26.0279 51.817 25.4927 51.4918 25.0608C51.3628 24.902 51.2 24.7741 51.0152 24.6865C50.8305 24.5988 50.6284 24.5535 50.4239 24.554C50.2233 24.5532 50.0252 24.5977 49.8443 24.6843C49.6635 24.7708 49.5045 24.8971 49.3792 25.0538C49.0631 25.4799 48.9104 26.0053 48.9487 26.5344V26.5383ZM46.065 27.7182L45.1121 27.6001C45.0107 27.9333 44.813 28.2292 44.5439 28.4504C44.2927 28.632 43.9887 28.7257 43.6788 28.717C43.4665 28.7221 43.2555 28.6825 43.0595 28.6005C42.8636 28.5185 42.6871 28.3961 42.5417 28.2413C42.2127 27.8596 42.0327 27.3718 42.035 26.8679H46.0906C46.0943 26.7591 46.0961 26.6772 46.0961 26.6223C46.1433 25.8627 45.8955 25.1143 45.4043 24.533C45.1778 24.2888 44.9014 24.0962 44.5939 23.9681C44.2864 23.8401 43.955 23.7796 43.6221 23.7907C43.2801 23.7785 42.9394 23.8398 42.623 23.9706C42.3067 24.1013 42.0222 24.2984 41.7886 24.5486C41.2868 25.1405 41.0336 25.9037 41.082 26.6782C41.0354 27.4308 41.2867 28.1714 41.7816 28.7403C42.2449 29.1614 42.835 29.4167 43.4592 29.4662C44.0833 29.5157 44.7063 29.3566 45.2302 29.0139C45.6477 28.6895 45.9422 28.2324 46.065 27.7182ZM45.123 26.1101H42.0855H42.0847C42.0952 25.6839 42.2669 25.2776 42.565 24.9729C42.7051 24.8337 42.872 24.7242 43.0555 24.6511C43.2391 24.5781 43.4355 24.5429 43.633 24.5478C43.8515 24.5422 44.0683 24.5874 44.2665 24.6798C44.4646 24.7722 44.6385 24.9092 44.7748 25.0802C44.9916 25.3808 45.1129 25.7396 45.123 26.1101ZM35.5542 27.5853L34.6425 27.7283C34.7071 28.2391 34.9616 28.7069 35.3553 29.0388C35.8291 29.363 36.3983 29.5182 36.9712 29.4795C37.3649 29.4861 37.7558 29.4101 38.1184 29.2564C38.4336 29.1273 38.7039 28.9084 38.8956 28.6268C39.0701 28.3709 39.1638 28.0684 39.1646 27.7586C39.1744 27.4793 39.0975 27.2037 38.9446 26.9697C38.7924 26.7541 38.5818 26.5864 38.3376 26.4863C37.892 26.3153 37.4362 26.1725 36.9727 26.0588C36.5219 25.9375 36.2504 25.8598 36.1582 25.8256C36.0203 25.7767 35.8982 25.6916 35.8045 25.5792C35.7308 25.4879 35.691 25.374 35.6918 25.2567C35.6943 25.1591 35.7203 25.0635 35.7675 24.978C35.8147 24.8925 35.8818 24.8196 35.9631 24.7654C36.2354 24.6015 36.5527 24.5281 36.8693 24.5556C37.1653 24.5364 37.4589 24.6187 37.7018 24.7888C37.9015 24.9523 38.0292 25.1875 38.0578 25.444L38.9586 25.3212C38.9197 25.0194 38.8108 24.7309 38.6407 24.4786C38.4563 24.2463 38.208 24.0729 37.9264 23.9796C37.5661 23.8502 37.1852 23.7878 36.8025 23.7954C36.533 23.7933 36.2647 23.8302 36.0058 23.905C35.7964 23.9608 35.5979 24.0517 35.419 24.174C35.23 24.3082 35.0749 24.4847 34.9658 24.6893C34.8548 24.8961 34.7976 25.1276 34.7995 25.3624C34.7962 25.6249 34.8698 25.8826 35.0114 26.1036C35.153 26.3246 35.3563 26.4993 35.5962 26.606C36.0513 26.7939 36.5217 26.9421 37.0023 27.049C37.3279 27.1133 37.6443 27.2178 37.9443 27.3599C38.0287 27.4107 38.0982 27.4829 38.1458 27.5691C38.1934 27.6554 38.2175 27.7526 38.2155 27.8511C38.2136 27.9694 38.1846 28.0856 38.1307 28.1908C38.0768 28.2961 37.9995 28.3875 37.9046 28.4582C37.6305 28.6518 37.2972 28.7434 36.9626 28.717C36.6115 28.7384 36.2641 28.6352 35.9817 28.4255C35.7373 28.2102 35.5843 27.9097 35.5542 27.5853ZM58.885 28.5561V29.352L59.7081 29.3544V23.9136H58.7863V26.8283C58.8024 27.1885 58.7513 27.5485 58.6355 27.89C58.5338 28.1353 58.3526 28.3393 58.1209 28.4691C57.8858 28.6089 57.6172 28.6825 57.3437 28.682C57.0941 28.6912 56.8484 28.6183 56.6441 28.4745C56.4558 28.3354 56.3247 28.1322 56.2757 27.9032C56.2277 27.5812 56.209 27.2555 56.2198 26.9301V23.9136H55.298V27.283C55.2901 27.5712 55.3089 27.8594 55.3539 28.1442C55.3986 28.3897 55.4956 28.6227 55.6384 28.8274C55.8006 29.0352 56.0152 29.1962 56.2602 29.2937C56.5433 29.4179 56.8495 29.4806 57.1587 29.4779C57.5014 29.4858 57.8404 29.4051 58.1428 29.2436C58.4452 29.0821 58.7009 28.8453 58.885 28.5561ZM62.2761 29.3519V23.9112H63.1062V24.7359C63.2441 24.442 63.444 24.1816 63.6923 23.9726C63.8656 23.8515 64.0723 23.7871 64.2838 23.7884C64.6215 23.7963 64.9501 23.8992 65.232 24.0853L64.9141 24.9403C64.7109 24.8139 64.4772 24.7452 64.2379 24.7413C64.0414 24.7392 63.8499 24.803 63.6938 24.9224C63.5289 25.0499 63.4089 25.2266 63.3511 25.4268C63.2448 25.7751 63.1924 26.1376 63.1956 26.5018V29.3496L62.2761 29.3519ZM66.7394 25.4192C66.5941 25.8061 66.5362 26.2204 66.5697 26.6324C66.5184 27.4002 66.7717 28.1572 67.2747 28.7395C67.5141 28.9838 67.8021 29.1752 68.1201 29.3013C68.438 29.4274 68.7789 29.4855 69.1207 29.4717C69.5798 29.4754 70.0322 29.3609 70.4342 29.139C70.8261 28.9268 71.1453 28.6019 71.3506 28.2063C71.5846 27.6884 71.6925 27.1224 71.6654 26.5547C71.6865 26.1861 71.6345 25.8169 71.5123 25.4684C71.3901 25.12 71.2002 24.7992 70.9534 24.5245C70.7159 24.2811 70.43 24.09 70.1143 23.9635C69.7985 23.837 69.4598 23.7779 69.1199 23.79C68.4949 23.7734 67.8859 23.9885 67.4099 24.3939C67.1136 24.6821 66.8846 25.0322 66.7394 25.4192ZM67.9727 28.197C67.6365 27.7478 67.4747 27.1919 67.5172 26.6324C67.4754 26.0754 67.6373 25.5222 67.9727 25.0756C68.1153 24.9127 68.2911 24.7821 68.4883 24.6926C68.6855 24.6032 68.8995 24.5569 69.116 24.5569C69.3325 24.5569 69.5466 24.6032 69.7437 24.6926C69.9409 24.7821 70.1167 24.9127 70.2593 25.0756C70.5944 25.5118 70.7576 26.0558 70.7179 26.6044C70.7625 27.1729 70.6005 27.7384 70.2617 28.197C70.1192 28.3606 69.9433 28.4917 69.7459 28.5815C69.5485 28.6713 69.3341 28.7178 69.1172 28.7178C68.9003 28.7178 68.6859 28.6713 68.4885 28.5815C68.291 28.4917 68.1152 28.3606 67.9727 28.197ZM73.5098 27.7283L74.4216 27.5853C74.4514 27.9097 74.6044 28.2104 74.849 28.4255C75.1314 28.6352 75.4788 28.7385 75.8299 28.717C76.1648 28.7434 76.4983 28.6519 76.7727 28.4582C76.8676 28.3875 76.9449 28.2961 76.9988 28.1908C77.0527 28.0856 77.0817 27.9694 77.0836 27.8511C77.0855 27.7527 77.0614 27.6554 77.0138 27.5692C76.9662 27.483 76.8967 27.4108 76.8124 27.3599C76.5122 27.2178 76.1955 27.1133 75.8696 27.049C75.389 26.9421 74.9186 26.7939 74.4635 26.606C74.2237 26.4993 74.0204 26.3247 73.879 26.1036C73.7375 25.8825 73.664 25.6248 73.6676 25.3624C73.6657 25.1276 73.7229 24.8961 73.834 24.6893C73.943 24.4847 74.0981 24.3082 74.2871 24.174C74.466 24.0517 74.6645 23.9608 74.8739 23.905C75.1328 23.8302 75.4011 23.7933 75.6706 23.7954C76.0536 23.7878 76.4347 23.8502 76.7953 23.9796C77.0765 24.0732 77.3244 24.2466 77.5088 24.4786C77.6789 24.7309 77.7878 25.0194 77.8267 25.3212L76.9259 25.444C76.8973 25.1875 76.7696 24.9523 76.5699 24.7888C76.327 24.6187 76.0334 24.5364 75.7374 24.5556C75.4208 24.528 75.1035 24.6014 74.8312 24.7654C74.75 24.8197 74.683 24.8926 74.6358 24.9781C74.5886 25.0635 74.5626 25.1591 74.5599 25.2567C74.5589 25.374 74.5988 25.488 74.6726 25.5792C74.7661 25.6917 74.8883 25.7768 75.0263 25.8256C75.1185 25.8598 75.3897 25.9375 75.84 26.0588C76.3035 26.1726 76.7593 26.3154 77.2049 26.4863C77.4491 26.5865 77.6596 26.7542 77.8119 26.9697C77.9648 27.2037 78.0417 27.4793 78.0319 27.7586C78.0312 28.0684 77.9375 28.3709 77.763 28.6268C77.5712 28.9084 77.3009 29.1273 76.9857 29.2564C76.6231 29.41 76.2323 29.486 75.8385 29.4795C75.2656 29.5181 74.6965 29.3629 74.2226 29.0388C73.8285 28.7072 73.574 28.2393 73.5098 27.7283ZM80.7147 19.3293C80.9569 19.4906 81.2416 19.5763 81.5325 19.5757C81.7256 19.5759 81.9167 19.538 82.0951 19.4641C82.2734 19.3902 82.4354 19.2819 82.5718 19.1452C82.7081 19.0086 82.8161 18.8464 82.8896 18.6679C82.9631 18.4894 83.0006 18.2981 83 18.1051C83 17.8141 82.9137 17.5297 82.7519 17.2878C82.5902 17.0459 82.3604 16.8574 82.0915 16.7462C81.8226 16.635 81.5267 16.606 81.2414 16.663C80.9561 16.72 80.694 16.8604 80.4885 17.0664C80.283 17.2723 80.1431 17.5347 80.0868 17.8201C80.0304 18.1056 80.0599 18.4014 80.1717 18.67C80.2835 18.9387 80.4725 19.1681 80.7147 19.3293ZM80.8292 17.0518C81.0383 16.9159 81.2832 16.8454 81.5325 16.8491C81.6964 16.8498 81.8586 16.8829 82.0097 16.9465C82.1607 17.0101 82.2977 17.1029 82.4128 17.2196C82.5279 17.3364 82.6187 17.4747 82.6802 17.6266C82.7416 17.7786 82.7723 17.9412 82.7707 18.1051C82.7708 18.3545 82.6968 18.5983 82.5579 18.8055C82.4191 19.0126 82.2217 19.1738 81.991 19.2685C81.7603 19.3632 81.5066 19.3871 81.2622 19.3371C81.0179 19.2872 80.7939 19.1657 80.6188 18.9881C80.4438 18.8104 80.3255 18.5848 80.2791 18.3397C80.2326 18.0947 80.2601 17.8414 80.3581 17.612C80.4561 17.3827 80.6201 17.1877 80.8292 17.0518ZM81.5217 18.2512L81.8901 18.9088H82.1473L81.7649 18.2233C81.8634 18.199 81.9509 18.1425 82.0136 18.0628C82.0762 17.9831 82.1105 17.8847 82.1108 17.7833C82.1098 17.7178 82.0959 17.6531 82.0698 17.5929C82.0437 17.5327 82.006 17.4783 81.9589 17.4327C81.9117 17.3872 81.856 17.3514 81.795 17.3274C81.734 17.3034 81.6688 17.2916 81.6033 17.2929H81.0538V18.9088H81.2753V18.2512H81.5217ZM81.2768 17.4942H81.5792V17.495C81.6184 17.4927 81.6577 17.4986 81.6946 17.5121C81.7315 17.5257 81.7653 17.5466 81.7937 17.5737C81.8222 17.6008 81.8448 17.6335 81.8602 17.6697C81.8756 17.7058 81.8834 17.7448 81.8831 17.7841C81.8823 17.8226 81.8738 17.8605 81.8579 17.8955C81.842 17.9305 81.8191 17.962 81.7907 17.9879C81.7623 18.0138 81.7288 18.0336 81.6924 18.0461C81.6561 18.0587 81.6175 18.0637 81.5792 18.0608H81.2768V17.4942Z" fill="#646464"/>
</svg>
