<svg width="132" height="40" viewBox="0 0 132 40" fill="none" xmlns="http://www.w3.org/2000/svg">
<g clip-path="url(#clip0)">
<path d="M4.0036 22.7842H0V18.8627H4.0036V15.9999C4.0036 11.8823 6.34234 9.01953 10.6234 9.01953C11.9712 9.01953 13.5171 9.21561 14.5874 9.4509L14.1513 13.8823C13.6757 13.6078 12.9622 13.1764 11.8126 13.1764C9.98919 13.1764 9.43423 14.745 9.43423 16.3136V18.8627H14.1513V22.7842H9.39459V39.4509H4.0036V22.7842Z" fill="white"/>
<path d="M44.7532 -4.13502e-06C44.7532 -4.13502e-06 50.1838 -0.156867 50.1838 5.17647C50.1838 10.5098 50.1838 39.4118 50.1838 39.4118H44.7532V-4.13502e-06Z" fill="white"/>
<path d="M57.0415 -4.13502e-06C57.0415 -4.13502e-06 62.4325 -0.156867 62.4325 5.17647C62.4325 10.5098 62.4325 39.4118 62.4325 39.4118H57.0415V-4.13502e-06Z" fill="white"/>
<path d="M88.0793 18.902C88.0793 18.902 93.51 18.7451 93.51 24.1177C93.51 29.451 93.51 39.5686 93.51 39.5686H88.0793V18.902Z" fill="white"/>
<path d="M81.4199 23.0982C79.755 22.5491 78.5658 22.1962 76.5839 22.1962C75.1172 22.1962 73.3731 22.706 73.3731 24.4707C73.3731 27.7648 82.7676 25.6864 82.7676 33.0982C82.7676 37.8825 78.4469 39.804 74.0469 39.804C71.9857 39.804 69.8848 39.4511 67.9028 38.9413L68.2199 34.5491C69.9244 35.3727 71.7082 35.9217 73.5713 35.9217C74.919 35.9217 77.0992 35.4119 77.0992 33.4119C77.0992 29.3727 67.7046 32.1178 67.7046 24.706C67.7046 20.2746 71.6289 18.3138 75.8703 18.3138C78.4073 18.3138 80.0721 18.706 81.7766 19.0589L81.4199 23.0982Z" fill="white"/>
<path d="M88.2378 9.92151H93.6288V15.0195H88.2378V9.92151Z" fill="white"/>
<path d="M98.7423 18.7843H105.124L109.207 25.4902L113.211 18.7843H118.919L112.735 28.5882L119.751 39.3725H113.29L108.652 31.6863L103.975 39.3725H98.0288L105.164 28.5882L98.7423 18.7843Z" fill="white"/>
<path d="M38.4108 39.5293H33.2576V36.745H33.1783C31.5135 38.745 29.1747 40.0391 26.3603 40.0391C21.445 40.0391 19.3044 36.5881 19.3044 31.9606V18.941H24.7351V29.9214C24.7351 32.4312 24.7747 35.843 28.263 35.843C32.1873 35.843 33.0198 31.6469 33.0198 29.0195V18.941H38.4504V39.5293H38.4108Z" fill="white"/>
<path d="M132 9.21552V9.13709C131.762 6.62729 129.582 4.6665 127.006 4.6665C124.231 4.6665 121.971 6.9018 121.971 9.6469C121.971 12.392 124.231 14.6273 127.006 14.6273C129.78 14.6273 132.04 12.392 132.04 9.6469C132 9.49003 132 9.33317 132 9.21552ZM122.923 9.17631C123.161 7.13709 124.905 5.60768 126.966 5.60768C129.027 5.60768 130.771 7.13709 131.009 9.17631V9.21552H130.296V9.17631C130.058 7.56846 128.631 6.31356 126.966 6.31356C125.539 6.31356 124.271 7.21552 123.795 8.54886C123.874 8.54886 126.451 8.54886 126.609 8.54886C126.49 8.43121 125.38 7.33317 125.38 7.33317L125.896 6.82337L128.314 9.17631H122.923ZM131.009 10.0783C130.771 12.1175 129.027 13.6861 126.966 13.6861C124.865 13.6861 123.121 12.1567 122.923 10.0783V10.0391H123.636V10.0783C123.834 11.7253 125.301 12.9802 126.966 12.9802C128.393 12.9802 129.662 12.0783 130.137 10.7449C130.058 10.7449 127.481 10.7449 127.323 10.7449C127.442 10.8626 128.552 11.9606 128.552 11.9606L128.036 12.4704L125.579 10.0783H125.658H130.335H131.009Z" fill="#F68A39"/>
</g>
<defs>
<clipPath id="clip0">
<rect width="132" height="40" fill="white"/>
</clipPath>
</defs>
</svg>
