<svg width="11" height="11" viewBox="0 0 11 11" fill="none" xmlns="http://www.w3.org/2000/svg">
<path d="M10.0288 5.21601V5.13758C9.791 2.62778 7.61082 0.666992 5.03423 0.666992C2.25946 0.666992 0 2.90229 0 5.64739C0 8.39248 2.25946 10.6278 5.03423 10.6278C7.80901 10.6278 10.0685 8.39248 10.0685 5.64739C10.0288 5.49052 10.0288 5.33366 10.0288 5.21601ZM0.95135 5.1768C1.18919 3.13758 2.93333 1.60817 4.99459 1.60817C7.05586 1.60817 8.80001 3.13758 9.03785 5.1768V5.21601H8.32434V5.1768C8.0865 3.56895 6.65946 2.31405 4.99459 2.31405C3.56756 2.31405 2.29909 3.21601 1.82342 4.54935C1.9027 4.54935 4.47928 4.54935 4.63784 4.54935C4.51892 4.4317 3.409 3.33366 3.409 3.33366L3.92433 2.82386L6.34235 5.1768H0.95135ZM9.03785 6.07876C8.80001 8.11797 7.05586 9.6866 4.99459 9.6866C2.89369 9.6866 1.14955 8.15719 0.95135 6.07876V6.03954H1.66486V6.07876C1.86306 7.72582 3.32973 8.98072 4.99459 8.98072C6.42162 8.98072 7.69009 8.07876 8.16577 6.74542C8.08649 6.74542 5.50992 6.74542 5.35136 6.74542C5.47028 6.86307 6.58018 7.96111 6.58018 7.96111L6.06487 8.47091L3.6072 6.07876H3.68649H8.36397H9.03785Z" fill="#7767D6"/>
</svg>
