<?xml version="1.0" encoding="utf-8"?>
<!-- Generator: Adobe Illustrator 24.1.1, SVG Export Plug-In . SVG Version: 6.00 Build 0)  -->
<svg version="1.1" id="Layer_1" xmlns="http://www.w3.org/2000/svg" xmlns:xlink="http://www.w3.org/1999/xlink" x="0px" y="0px"
	 viewBox="0 0 512 512" style="enable-background:new 0 0 512 512;" xml:space="preserve">
<style type="text/css">
	.st0{fill:#0ACF83;}
	.st1{fill:#A259FF;}
	.st2{fill:#F24E1E;}
	.st3{fill:#FF7262;}
	.st4{fill:#1ABCFE;}
</style>
<g>
	<path class="st0" d="M170.7,512c47.1,0,85.3-38.2,85.3-85.3v-85.3h-85.3c-47.1,0-85.3,38.2-85.3,85.3S123.6,512,170.7,512z"/>
	<path class="st1" d="M85.3,256c0-47.1,38.2-85.3,85.3-85.3H256v170.7h-85.3C123.6,341.3,85.3,303.1,85.3,256z"/>
	<path class="st2" d="M85.3,85.3C85.3,38.2,123.6,0,170.7,0H256v170.7h-85.3C123.6,170.7,85.3,132.4,85.3,85.3z"/>
	<path class="st3" d="M256,0h85.3c47.1,0,85.3,38.2,85.3,85.3s-38.2,85.3-85.3,85.3H256V0z"/>
	<circle class="st4" cx="341.3" cy="256" r="85.3"/>
</g>
</svg>
