<?xml version="1.0" encoding="utf-8"?>
<!-- Generator: Adobe Illustrator 24.1.1, SVG Export Plug-In . SVG Version: 6.00 Build 0)  -->
<svg version="1.1" id="Layer_1" xmlns="http://www.w3.org/2000/svg" xmlns:xlink="http://www.w3.org/1999/xlink" x="0px" y="0px"
	 viewBox="0 0 512 512" style="enable-background:new 0 0 512 512;" xml:space="preserve">
<style type="text/css">
	.st0{fill:#DC395F;}
	.st1{fill:#FFFFFF;}
</style>
<g>
	<path class="st0" d="M465.6,0H46.4C20.8,0,0,20.8,0,46.4v419.2C0,491.2,20.8,512,46.4,512h419.2c25.6,0,46.4-20.8,46.4-46.4V46.4
		C512,20.8,491.2,0,465.6,0"/>
	<path class="st1" d="M171.1,161.1c17,0,31.3-13.3,31.3-30.8c0-17.5-14.3-30.8-31.3-30.8c-17,0-31.3,13.3-31.3,30.8
		C139.8,147.7,154.1,161.1,171.1,161.1"/>
	<path class="st1" d="M106.3,326.1c-1.8,7.8-2.8,16.3-2.8,23.2c0,27.1,14.7,45.2,46,45.2c25.9,0,47-15.4,62.1-40.3l-9.2,37.1h51.5
		l29.4-118.1c7.4-29.9,21.6-45.4,43.2-45.4c17,0,27.6,10.6,27.6,28.1c0,5.1-0.5,10.6-2.3,16.6l-15.2,54.3c-2.3,7.8-3.2,15.6-3.2,23
		c0,25.8,15.2,44.6,46.9,44.6c27.1,0,48.8-17.5,60.7-59.3l-20.2-7.8c-10.1,28-18.9,33.1-25.8,33.1c-6.9,0-10.6-4.6-10.6-13.8
		c0-4.1,0.9-8.7,2.3-14.3l14.7-52.9c3.7-12.4,5.1-23.4,5.1-33.5c0-39.6-23.9-60.2-52.9-60.2c-27.1,0-54.7,24.5-68.5,50.2l10.1-46.2
		h-78.6l-11,40.7h36.8L219.7,321c-17.8,39.6-50.5,40.2-54.6,39.3c-6.7-1.5-11-4.1-11-12.8c0-5,0.9-12.3,3.2-21l34.5-136.8h-87.4
		l-11,40.7h36.3L106.3,326.1"/>
</g>
</svg>
