<svg width="133" height="61" viewBox="0 0 133 61" fill="none" xmlns="http://www.w3.org/2000/svg">
<path d="M4.0036 22.7847H0V18.8632H4.0036V16.0004C4.0036 11.8828 6.34234 9.02002 10.6234 9.02002C11.9712 9.02002 13.5171 9.2161 14.5874 9.45139L14.1513 13.8828C13.6757 13.6083 12.9622 13.1769 11.8126 13.1769C9.98919 13.1769 9.43423 14.7455 9.43423 16.3141V18.8632H14.1513V22.7847H9.39459V39.4514H4.0036V22.7847Z" fill="#232323"/>
<path d="M44.7532 0.000484146C44.7532 0.000484146 50.1838 -0.156379 50.1838 5.17695C50.1838 10.5103 50.1838 39.4122 50.1838 39.4122H44.7532V0.000484146Z" fill="#232323"/>
<path d="M57.0415 0.000484146C57.0415 0.000484146 62.4325 -0.156379 62.4325 5.17695C62.4325 10.5103 62.4325 39.4122 62.4325 39.4122H57.0415V0.000484146Z" fill="#232323"/>
<path d="M88.0793 18.9025C88.0793 18.9025 93.51 18.7456 93.51 24.1181C93.51 29.4515 93.51 39.5691 93.51 39.5691H88.0793V18.9025Z" fill="#232323"/>
<path d="M81.4199 23.0986C79.755 22.5496 78.5658 22.1967 76.5839 22.1967C75.1172 22.1967 73.3731 22.7065 73.3731 24.4712C73.3731 27.7653 82.7676 25.6869 82.7676 33.0987C82.7676 37.883 78.4469 39.8045 74.0469 39.8045C71.9857 39.8045 69.8848 39.4516 67.9028 38.9418L68.2199 34.5496C69.9244 35.3732 71.7082 35.9222 73.5713 35.9222C74.919 35.9222 77.0992 35.4124 77.0992 33.4124C77.0992 29.3732 67.7046 32.1183 67.7046 24.7065C67.7046 20.2751 71.6289 18.3143 75.8703 18.3143C78.4073 18.3143 80.0721 18.7065 81.7766 19.0594L81.4199 23.0986Z" fill="#232323"/>
<path d="M88.2378 9.922H93.6288V15.02H88.2378V9.922Z" fill="#232323"/>
<path d="M98.7423 18.7848H105.124L109.207 25.4907L113.211 18.7848H118.919L112.735 28.5887L119.751 39.373H113.29L108.652 31.6868L103.975 39.373H98.0288L105.164 28.5887L98.7423 18.7848Z" fill="#232323"/>
<path d="M38.4108 39.5298H33.2576V36.7454H33.1783C31.5135 38.7454 29.1747 40.0396 26.3603 40.0396C21.445 40.0396 19.3044 36.5886 19.3044 31.9611V18.9415H24.7351V29.9219C24.7351 32.4317 24.7747 35.8435 28.263 35.8435C32.1873 35.8435 33.0198 31.6474 33.0198 29.02V18.9415H38.4504V39.5298H38.4108Z" fill="#232323"/>
<path d="M132 9.21601V9.13758C131.762 6.62778 129.582 4.66699 127.006 4.66699C124.231 4.66699 121.971 6.90229 121.971 9.64739C121.971 12.3925 124.231 14.6278 127.006 14.6278C129.78 14.6278 132.04 12.3925 132.04 9.64739C132 9.49052 132 9.33366 132 9.21601ZM122.923 9.1768C123.161 7.13758 124.905 5.60817 126.966 5.60817C129.027 5.60817 130.771 7.13758 131.009 9.1768V9.21601H130.296V9.1768C130.058 7.56895 128.631 6.31405 126.966 6.31405C125.539 6.31405 124.271 7.21601 123.795 8.54935C123.874 8.54935 126.451 8.54935 126.609 8.54935C126.49 8.4317 125.38 7.33366 125.38 7.33366L125.896 6.82386L128.314 9.1768H122.923ZM131.009 10.0788C130.771 12.118 129.027 13.6866 126.966 13.6866C124.865 13.6866 123.121 12.1572 122.923 10.0788V10.0395H123.636V10.0788C123.834 11.7258 125.301 12.9807 126.966 12.9807C128.393 12.9807 129.662 12.0788 130.137 10.7454C130.058 10.7454 127.481 10.7454 127.323 10.7454C127.442 10.8631 128.552 11.9611 128.552 11.9611L128.036 12.4709L125.579 10.0788H125.658H130.335H131.009Z" fill="#F68A39"/>
<path d="M73.0156 57V45.625H76.5156C77.5156 45.625 78.4089 45.8516 79.1953 46.3047C79.987 46.7526 80.6042 47.3932 81.0469 48.2266C81.4896 49.0547 81.7109 49.9974 81.7109 51.0547V51.5781C81.7109 52.6354 81.4922 53.5755 81.0547 54.3984C80.6224 55.2214 80.0104 55.8594 79.2188 56.3125C78.4271 56.7656 77.5339 56.9948 76.5391 57H73.0156ZM75.3594 47.5234V55.1172H76.4922C77.4089 55.1172 78.1094 54.8177 78.5938 54.2188C79.0781 53.6198 79.3255 52.763 79.3359 51.6484V51.0469C79.3359 49.8906 79.0964 49.0156 78.6172 48.4219C78.138 47.8229 77.4375 47.5234 76.5156 47.5234H75.3594ZM89.9603 54.0156C89.9603 53.5729 89.8041 53.2344 89.4916 53C89.1791 52.7604 88.6166 52.5104 87.8041 52.25C86.9916 51.9844 86.3483 51.724 85.8744 51.4688C84.5827 50.7708 83.9369 49.8307 83.9369 48.6484C83.9369 48.0339 84.1088 47.487 84.4525 47.0078C84.8015 46.5234 85.2989 46.1458 85.9447 45.875C86.5957 45.6042 87.3249 45.4688 88.1322 45.4688C88.9447 45.4688 89.6686 45.6172 90.3041 45.9141C90.9395 46.2057 91.4317 46.6198 91.7806 47.1562C92.1348 47.6927 92.3119 48.3021 92.3119 48.9844H89.9681C89.9681 48.4635 89.8041 48.0599 89.4759 47.7734C89.1478 47.4818 88.6869 47.3359 88.0931 47.3359C87.5202 47.3359 87.0749 47.4583 86.7572 47.7031C86.4395 47.9427 86.2806 48.2604 86.2806 48.6562C86.2806 49.026 86.4655 49.3359 86.8353 49.5859C87.2103 49.8359 87.7598 50.0703 88.4838 50.2891C89.8171 50.6901 90.7884 51.1875 91.3978 51.7812C92.0072 52.375 92.3119 53.1146 92.3119 54C92.3119 54.9844 91.9395 55.7578 91.1947 56.3203C90.4499 56.8776 89.4473 57.1562 88.1869 57.1562C87.3119 57.1562 86.515 56.9974 85.7963 56.6797C85.0775 56.3568 84.528 55.9167 84.1478 55.3594C83.7728 54.8021 83.5853 54.1562 83.5853 53.4219H85.9369C85.9369 54.6771 86.6869 55.3047 88.1869 55.3047C88.7442 55.3047 89.1791 55.1927 89.4916 54.9688C89.8041 54.7396 89.9603 54.4219 89.9603 54.0156ZM96.6003 49.4688C97.1993 48.75 97.9519 48.3906 98.8581 48.3906C100.691 48.3906 101.621 49.4557 101.647 51.5859V57H99.3894V51.6484C99.3894 51.1641 99.2852 50.8073 99.0769 50.5781C98.8685 50.3438 98.5222 50.2266 98.0378 50.2266C97.3764 50.2266 96.8972 50.4818 96.6003 50.9922V57H94.3425V45H96.6003V49.4688ZM109.053 56.1406C108.496 56.8177 107.725 57.1562 106.74 57.1562C105.834 57.1562 105.141 56.8958 104.662 56.375C104.188 55.8542 103.946 55.0911 103.936 54.0859V48.5469H106.193V54.0078C106.193 54.888 106.594 55.3281 107.397 55.3281C108.162 55.3281 108.688 55.0625 108.975 54.5312V48.5469H111.24V57H109.115L109.053 56.1406ZM121.201 52.8516C121.201 54.2057 120.912 55.263 120.333 56.0234C119.755 56.7786 118.948 57.1562 117.912 57.1562C116.995 57.1562 116.263 56.8047 115.716 56.1016L115.615 57H113.583V45H115.841V49.3047C116.362 48.6953 117.047 48.3906 117.896 48.3906C118.927 48.3906 119.734 48.7708 120.318 49.5312C120.906 50.2865 121.201 51.3516 121.201 52.7266V52.8516ZM118.943 52.6875C118.943 51.8333 118.807 51.2109 118.537 50.8203C118.266 50.4245 117.862 50.2266 117.326 50.2266C116.607 50.2266 116.112 50.5208 115.841 51.1094V54.4453C116.117 55.0391 116.617 55.3359 117.341 55.3359C118.07 55.3359 118.55 54.9766 118.779 54.2578C118.888 53.9141 118.943 53.3906 118.943 52.6875Z" fill="#F68A39"/>
</svg>
