<svg width="625" height="187" viewBox="0 0 625 187" fill="none" xmlns="http://www.w3.org/2000/svg">
<g clip-path="url(#clip0)">
<path d="M18.44 106.29H0V88.04H18.44V74.62C18.44 55.44 29.25 42 49.03 42C55.1613 42.0499 61.2708 42.7369 67.26 44.05L65.26 64.74C62.0553 62.5943 58.2868 61.446 54.4301 61.44C46.0301 61.44 43.4301 68.7 43.4301 76.14V88.04H65.22V106.29H43.4301V183.97H18.4301V106.29H18.44Z" fill="#232323"/>
<path d="M206.41 0.000213623C206.41 0.000213623 231.41 -0.669775 231.41 24.2302V183.97H206.41V-0.0297852V0.000213623Z" fill="#232323"/>
<path d="M263.1 0.000213623C263.1 0.000213623 288.04 -0.669775 288.04 24.2302V183.97H263.1V-0.0297852V0.000213623Z" fill="#232323"/>
<path d="M177.15 184.26H153.48V171.21H153.1C145.44 180.53 134.66 186.5 121.62 186.5C98.8802 186.5 88.9902 170.5 88.9902 148.89V88.3H113.99V139.56C113.99 151.26 114.19 167.11 130.21 167.11C148.21 167.11 152.21 147.55 152.21 135.27V88.27H177.21V184.27L177.15 184.26Z" fill="#232323"/>
<path d="M412.44 61.72C419.423 67.4684 424.961 74.7738 428.61 83.05C432.71 91.93 434.76 102.8 434.76 115.66C434.76 126.96 432.927 136.8 429.26 145.18C425.97 153.027 420.988 160.051 414.67 165.75C408.528 171.071 401.389 175.12 393.67 177.66C385.734 180.277 377.427 181.594 369.07 181.56H314.07V174.22C315.71 174.16 317.763 173.973 320.23 173.66C321.918 173.535 323.577 173.154 325.15 172.53C326.839 171.744 328.201 170.393 329 168.71C329.766 166.878 330.135 164.905 330.08 162.92V68.22C330.104 66.245 329.765 64.2825 329.08 62.43C328.32 60.6041 326.923 59.1156 325.15 58.24C323.221 57.1785 321.129 56.4452 318.96 56.07C316.77 55.7 315.09 55.45 313.96 55.32V47.98H372.08C378.827 48.0558 385.534 49.0379 392.02 50.9C399.498 53.066 406.449 56.7492 412.44 61.72V61.72ZM396.74 157.44C399.457 151.771 401.31 145.727 402.24 139.51C403.473 131.571 404.052 123.544 403.97 115.51C404.041 107.388 403.267 99.2814 401.66 91.32C400.405 84.7873 398.12 78.4956 394.89 72.68C392.215 67.8345 388.398 63.7153 383.77 60.68C379.244 57.8316 373.987 56.3587 368.64 56.44C366.853 56.44 364.813 56.49 362.52 56.59C360.24 56.68 358.52 56.76 357.4 56.82V158.31C357.369 160.334 357.618 162.354 358.14 164.31C358.606 166.004 359.463 167.566 360.64 168.87C361.841 170.205 363.328 171.251 364.99 171.93C367.139 172.734 369.427 173.104 371.72 173.02C376.978 173.156 382.164 171.767 386.65 169.02C391.012 166.159 394.503 162.153 396.74 157.44Z" fill="#7767D6"/>
<path d="M491.34 185.23C484.992 185.297 478.678 184.282 472.67 182.23C467.487 180.484 462.558 178.059 458.01 175.02L452.7 181.61H446.16L445.16 133.32H451.77C453.4 138.265 455.303 143.116 457.47 147.85C459.629 152.688 462.312 157.276 465.47 161.53C468.372 165.519 471.921 168.994 475.97 171.81C479.981 174.509 484.727 175.906 489.56 175.81C496.54 175.81 501.874 173.72 505.56 169.54C509.247 165.36 511.107 160.1 511.14 153.76C511.286 148.937 509.591 144.239 506.4 140.62C503.254 137.067 498.367 133.997 491.74 131.41C487.434 129.71 483.47 128.137 479.85 126.69C476.23 125.243 472.83 123.76 469.65 122.24C462.686 119.013 456.949 113.627 453.29 106.88C449.673 99.9956 447.834 92.3161 447.94 84.5399C447.932 79.412 448.871 74.3267 450.71 69.5399C452.549 64.7284 455.296 60.3151 458.8 56.54C462.483 52.7524 466.909 49.7666 471.8 47.7699C477.259 45.4764 483.129 44.3228 489.05 44.38C494.861 44.3363 500.629 45.388 506.05 47.48C510.421 49.0924 514.603 51.1782 518.52 53.7L523.21 48.0499H529.91L530.53 93.6099H523.91C522.37 88.7033 520.56 83.6866 518.48 78.5599C516.738 74.079 514.533 69.7924 511.9 65.7699C509.586 62.3329 506.632 59.3726 503.2 57.0499C499.763 54.8326 495.74 53.697 491.65 53.79C489.125 53.706 486.611 54.1672 484.279 55.1422C481.948 56.1172 479.854 57.583 478.14 59.44C474.605 63.3245 472.716 68.4298 472.87 73.6799C472.87 79.0133 474.397 83.3833 477.45 86.7899C480.504 90.1966 485.26 93.1966 491.72 95.7899C495.52 97.3566 499.397 98.9266 503.35 100.5C507.304 102.073 510.817 103.58 513.89 105.02C520.854 108.12 526.761 113.183 530.89 119.59C534.764 125.783 536.7 133.467 536.7 142.64C536.701 148.396 535.577 154.096 533.39 159.42C531.396 164.492 528.353 169.086 524.46 172.9C520.36 176.852 515.521 179.958 510.22 182.04C504.185 184.287 497.779 185.37 491.34 185.23V185.23Z" fill="#7767D6"/>
<path d="M572.47 30.8102H566.54V20.3402H558.46V30.8102H552.52V7.18018H558.46V15.8302H566.54V7.18018H572.47V30.8102Z" fill="#232323"/>
<path d="M588.84 31.3002C585.66 31.3002 583.22 30.5402 581.51 29.0002C579.8 27.4602 578.95 25.2302 578.95 22.2702V7.18018H584.88V21.9202C584.786 23.2118 585.112 24.4993 585.81 25.5902C586.18 26.0138 586.644 26.3442 587.165 26.5545C587.687 26.7647 588.25 26.8489 588.81 26.8002C589.365 26.8465 589.924 26.7663 590.444 26.5653C590.963 26.3644 591.431 26.048 591.81 25.6402C592.558 24.5503 592.91 23.2379 592.81 21.9202V7.18018H598.75V22.2602C598.831 23.4903 598.65 24.7236 598.219 25.8786C597.789 27.0336 597.117 28.0839 596.25 28.9602C594.597 30.5202 592.127 31.3002 588.84 31.3002Z" fill="#232323"/>
<path d="M624.18 23.58C624.199 24.6481 623.97 25.7059 623.51 26.67C623.088 27.5326 622.476 28.2882 621.72 28.88C620.849 29.5613 619.854 30.0673 618.79 30.37C617.461 30.6916 616.097 30.8395 614.73 30.81H605.27V7.18002H613.62C614.956 7.15612 616.293 7.22295 617.62 7.38003C618.499 7.50753 619.348 7.78846 620.13 8.21001C620.928 8.62144 621.589 9.25762 622.03 10.04C622.461 10.8484 622.678 11.7539 622.66 12.67C622.679 13.7599 622.376 14.8311 621.79 15.75C621.224 16.6515 620.387 17.3514 619.4 17.75V17.88C620.737 18.1254 621.965 18.7827 622.91 19.76C623.807 20.8236 624.262 22.191 624.18 23.58V23.58ZM616.57 13.86C616.567 13.4527 616.467 13.0518 616.28 12.69C616.094 12.2977 615.77 11.9879 615.37 11.82C614.929 11.637 614.457 11.5419 613.98 11.54C613.45 11.54 612.65 11.54 611.59 11.54H611.18V16.54H611.92C612.92 16.54 613.65 16.54 614.06 16.54C614.497 16.513 614.925 16.4009 615.32 16.21C615.756 16.0379 616.112 15.7101 616.32 15.29C616.51 14.8383 616.595 14.3495 616.57 13.86ZM618.07 23.46C618.105 22.8567 617.947 22.2579 617.62 21.75C617.282 21.3091 616.818 20.9813 616.29 20.81C615.808 20.6585 615.305 20.581 614.8 20.58H612.27H611.18V26.44H611.5C613.04 26.44 614.11 26.44 614.7 26.44C615.325 26.4093 615.938 26.2636 616.51 26.01C617.005 25.8201 617.421 25.4675 617.69 25.01C617.953 24.5293 618.084 23.9877 618.07 23.44V23.46Z" fill="#232323"/>
</g>
<defs>
<clipPath id="clip0">
<rect width="624.18" height="186.5" fill="white"/>
</clipPath>
</defs>
</svg>
